<svg width="148" height="34" viewBox="0 0 148 34" fill="none" xmlns="http://www.w3.org/2000/svg">
<g clip-path="url(#clip0_27_138)">
<g clip-path="url(#clip1_27_138)">
<path d="M141.945 11.599C143.634 11.599 144.996 12.1164 146.031 13.1511C147.081 14.1707 147.606 15.4946 147.606 17.1228C147.606 18.751 147.081 20.0825 146.031 21.1173C144.996 22.1369 143.634 22.6466 141.945 22.6466C140.241 22.6466 138.863 22.1369 137.813 21.1173C136.779 20.0825 136.261 18.751 136.261 17.1228C136.261 15.4946 136.779 14.1707 137.813 13.1511C138.863 12.1164 140.241 11.599 141.945 11.599ZM140.119 19.2684C140.575 19.8162 141.184 20.0902 141.945 20.0902C142.706 20.0902 143.307 19.8162 143.748 19.2684C144.205 18.7206 144.433 18.0054 144.433 17.1228C144.433 16.2402 144.205 15.525 143.748 14.9772C143.307 14.4294 142.706 14.1555 141.945 14.1555C141.184 14.1555 140.575 14.4294 140.119 14.9772C139.662 15.525 139.434 16.2402 139.434 17.1228C139.434 18.0054 139.662 18.7206 140.119 19.2684Z" fill="black"/>
<path d="M117.869 11.599C119.253 11.599 120.349 11.9642 121.156 12.6946C121.977 13.4098 122.388 14.3076 122.388 15.3881L122.32 16.187L119.558 16.3467C119.588 16.2859 119.603 16.1261 119.603 15.8674C119.603 15.3805 119.444 14.9772 119.124 14.6576C118.82 14.3229 118.386 14.1555 117.823 14.1555C117.108 14.1555 116.53 14.4218 116.088 14.9544C115.662 15.487 115.449 16.187 115.449 17.0543C115.449 17.9978 115.685 18.7434 116.157 19.2913C116.644 19.8239 117.336 20.0902 118.234 20.0902C119.512 20.0902 120.494 19.6717 121.178 18.8347L122.708 20.7977C122.312 21.2999 121.711 21.7336 120.904 22.0988C120.098 22.464 119.139 22.6466 118.028 22.6466C116.248 22.6466 114.84 22.1445 113.806 21.1401C112.786 20.1206 112.276 18.7967 112.276 17.1685C112.276 15.5098 112.794 14.1707 113.829 13.1511C114.863 12.1164 116.21 11.599 117.869 11.599Z" fill="black"/>
<path d="M106.492 20.2728C107.603 20.2728 108.531 19.8619 109.277 19.0402L110.76 20.7521C110.35 21.2847 109.741 21.7336 108.934 22.0988C108.143 22.464 107.207 22.6466 106.127 22.6466C104.346 22.6466 102.931 22.1369 101.881 21.1173C100.846 20.0978 100.329 18.7663 100.329 17.1228C100.329 15.4946 100.831 14.1707 101.836 13.1511C102.84 12.1164 104.171 11.599 105.83 11.599C107.367 11.599 108.577 12.0707 109.459 13.0142C110.342 13.9577 110.783 15.1826 110.783 16.6891L110.692 17.8304H103.433C103.57 18.576 103.898 19.1695 104.415 19.6108C104.932 20.0521 105.625 20.2728 106.492 20.2728ZM105.83 13.9729C105.206 13.9729 104.674 14.1707 104.232 14.5663C103.806 14.9468 103.54 15.4946 103.433 16.2098H107.93C107.915 15.5554 107.717 15.0229 107.337 14.612C106.971 14.1859 106.469 13.9729 105.83 13.9729Z" fill="black"/>
<path d="M95.8545 11.736H98.3197V22.0988C98.3197 23.6814 97.7719 24.952 96.6763 25.9107C95.5806 26.8694 94.1122 27.3487 92.2709 27.3487C90.3079 27.3487 88.6949 26.9226 87.4319 26.0705L87.7442 23.915C88.7333 24.6607 90.8481 24.8379 92.2024 24.8379C93.1155 24.8379 93.8383 24.6096 94.3709 24.1531C94.9187 23.7118 95.1926 23.0575 95.1926 22.1901V20.8662C94.4926 21.8858 93.4122 22.3955 91.9513 22.3955C90.5209 22.3955 89.3492 21.9238 88.4362 20.9804C87.5232 20.0217 87.0667 18.6902 87.0667 16.9859C87.0667 15.3576 87.5003 14.0566 88.3677 13.0827C89.2351 12.0936 90.4068 11.599 91.8829 11.599C93.6024 11.599 94.7817 12.3218 95.4208 13.7674H95.4893C95.4741 13.6 95.5045 13.2957 95.5806 12.8544C95.6567 12.4131 95.748 12.0403 95.8545 11.736ZM92.7274 19.7706C93.4731 19.7706 94.0665 19.5119 94.5078 18.9945C94.9643 18.4619 95.1926 17.8761 95.1926 17.2369V16.7576C95.1926 16.0728 94.9643 15.4794 94.5078 14.9772C94.0513 14.475 93.435 14.224 92.6589 14.224C91.9285 14.224 91.3427 14.475 90.9014 14.9772C90.4601 15.4794 90.2394 16.1489 90.2394 16.9859C90.2394 17.838 90.4601 18.5152 90.9014 19.0173C91.3579 19.5195 91.9666 19.7706 92.7274 19.7706Z" fill="black"/>
<path d="M81.0996 11.599C82.393 11.599 83.3821 11.9946 84.0669 12.7859C84.7669 13.5772 85.1169 14.612 85.1169 15.8902V22.5097H81.9898V16.438C81.9898 15.7837 81.8224 15.2663 81.4876 14.8859C81.168 14.4903 80.7039 14.2924 80.0952 14.2924C79.3496 14.2924 78.779 14.5587 78.3833 15.0913C78.0029 15.6239 77.8127 16.2402 77.8127 16.9402V22.5097H74.6855V11.736L77.1279 11.6447C77.3866 12.4512 77.5159 13.2044 77.5159 13.9044H77.6072C78.2311 12.3675 79.3952 11.599 81.0996 11.599Z" fill="black"/>
<path d="M72.5853 8.28918C72.5853 8.85221 72.3875 9.31634 71.9918 9.68155C71.5962 10.0468 71.1169 10.2294 70.5538 10.2294C69.9908 10.2294 69.5115 10.0468 69.1158 9.68155C68.7354 9.31634 68.5452 8.85221 68.5452 8.28918C68.5452 7.74136 68.7354 7.28485 69.1158 6.91964C69.5115 6.53921 69.9908 6.349 70.5538 6.349C71.1169 6.349 71.5962 6.53921 71.9918 6.91964C72.3875 7.28485 72.5853 7.74136 72.5853 8.28918ZM68.9789 22.5096V11.7359L72.106 11.6446V22.5096H68.9789Z" fill="black"/>
<path d="M61.3193 11.599C63.0084 11.599 64.3704 12.1164 65.4051 13.1511C66.4551 14.1707 66.9801 15.4946 66.9801 17.1228C66.9801 18.751 66.4551 20.0825 65.4051 21.1173C64.3704 22.1369 63.0084 22.6466 61.3193 22.6466C59.615 22.6466 58.2379 22.1369 57.1879 21.1173C56.1531 20.0825 55.6357 18.751 55.6357 17.1228C55.6357 15.4946 56.1531 14.1707 57.1879 13.1511C58.2379 12.1164 59.615 11.599 61.3193 11.599ZM59.4933 19.2684C59.9498 19.8162 60.5585 20.0902 61.3193 20.0902C62.0802 20.0902 62.6813 19.8162 63.1226 19.2684C63.5791 18.7206 63.8073 18.0054 63.8073 17.1228C63.8073 16.2402 63.5791 15.525 63.1226 14.9772C62.6813 14.4294 62.0802 14.1555 61.3193 14.1555C60.5585 14.1555 59.9498 14.4294 59.4933 14.9772C59.0368 15.525 58.8085 16.2402 58.8085 17.1228C58.8085 18.0054 59.0368 18.7206 59.4933 19.2684Z" fill="black"/>
<path d="M49.5923 11.599C50.977 11.599 52.0727 11.9642 52.8792 12.6946C53.7009 13.4098 54.1118 14.3076 54.1118 15.3881L54.0433 16.187L51.2814 16.3467C51.3118 16.2859 51.327 16.1261 51.327 15.8674C51.327 15.3805 51.1673 14.9772 50.8477 14.6576C50.5434 14.3229 50.1097 14.1555 49.5466 14.1555C48.8314 14.1555 48.2532 14.4218 47.8119 14.9544C47.3858 15.487 47.1728 16.187 47.1728 17.0543C47.1728 17.9978 47.4086 18.7434 47.8804 19.2913C48.3673 19.8239 49.0597 20.0902 49.9575 20.0902C51.2357 20.0902 52.2172 19.6717 52.902 18.8347L54.4313 20.7977C54.0357 21.2999 53.4346 21.7336 52.6281 22.0988C51.8216 22.464 50.8629 22.6466 49.7521 22.6466C47.9717 22.6466 46.5641 22.1445 45.5293 21.1401C44.5098 20.1206 44 18.7967 44 17.1685C44 15.5098 44.5174 14.1707 45.5521 13.1511C46.5869 12.1164 47.9336 11.599 49.5923 11.599Z" fill="black"/>
<path d="M132.411 17.7137C133.059 18.8486 133.706 19.772 134.381 20.7338C134.673 21.1511 134.971 21.5756 135.276 22.0278C135.664 22.6023 135.161 23.2908 134.521 23.0259C132.023 21.9928 130.199 20.0488 128.949 18.2186H127.61V22.5098H124.483V6.3949H127.61V15.7763H128.934C129.786 15.7763 130.456 15.5176 130.943 15.0002C131.43 14.4828 131.673 13.7448 131.673 12.7861C131.673 12.5426 131.643 12.1926 131.582 11.7361H134.572C134.648 12.0861 134.686 12.4589 134.686 12.8546C134.686 14.974 133.74 16.7897 132.411 17.7137Z" fill="black"/>
</g>
<g clip-path="url(#clip2_27_138)">
<path d="M31.9998 16.7218C32.0398 25.622 24.9085 32.8691 16.0727 32.9094C7.23579 32.9497 0.0401701 25.7673 0.000167473 16.867C-0.0398351 7.9668 7.09154 0.719647 15.9285 0.679358C24.7642 0.64029 31.9598 7.82152 31.9998 16.7218Z" fill="#C5C5C5"/>
<path d="M24.1145 11.0278C22.9532 10.6896 21.7507 10.2086 20.5313 9.7239C20.4609 9.41623 20.1906 9.03288 19.6427 8.56284C18.8463 7.86693 17.3504 7.88525 16.0582 8.19291C14.6315 7.85472 13.2217 7.73386 11.8689 8.06105C0.806333 11.1316 7.07826 18.6192 3.01617 26.1484C3.59439 27.3827 9.97172 33.313 18.8378 32.6545C18.8378 32.6545 15.7552 25.1937 22.712 21.6116C28.3548 18.7071 32.4314 13.3133 24.1133 11.0266L24.1145 11.0278Z" fill="#565656"/>
<path d="M16.8243 12.823C16.8243 14.5444 15.4388 15.9387 13.7308 15.9387C12.0228 15.9387 10.6373 14.5444 10.6373 12.823C10.6373 11.1015 12.0228 9.7085 13.7308 9.7085C15.4388 9.7085 16.8243 11.1027 16.8243 12.823Z" fill="white"/>
<path d="M27.9862 17.307C25.4806 19.0858 22.6283 20.4349 18.5856 20.4349C16.6933 20.4349 16.3091 18.4094 15.0581 19.402C14.412 19.9148 12.1355 21.0612 10.3281 20.9745C8.50493 20.8866 5.59444 19.8195 4.77621 15.9359C4.45255 19.8195 4.28769 22.6813 2.83911 25.9606C6.39506 31.1866 12.5951 33.7867 18.8377 32.6559C18.1674 27.9396 22.2598 23.321 24.5654 20.9574C25.4382 20.0625 27.111 18.6011 27.9862 17.307Z" fill="#565656"/>
<ellipse cx="15.0348" cy="12.8016" rx="1.81532" ry="2.54145" fill="#0D1217"/>
<path d="M15.7609 8.187C16.7513 8.58286 20.3681 9.78751 21.933 10.2604C20.3352 7.60931 17.914 7.76229 15.7609 8.187Z" fill="#464646"/>
<path d="M15.0347 12.8014L12.8563 11.3491V14.2536L15.0347 12.8014Z" fill="white"/>
</g>
</g>
<defs>
<clipPath id="clip0_27_138">
<rect width="148" height="32.3396" fill="white" transform="translate(0 0.679199)"/>
</clipPath>
<clipPath id="clip1_27_138">
<rect width="104" height="21" fill="white" transform="translate(44 6.349)"/>
</clipPath>
<clipPath id="clip2_27_138">
<rect width="32" height="32.3396" fill="white" transform="translate(0 0.679199)"/>
</clipPath>
</defs>
</svg>
