<svg width="104" height="21" viewBox="0 0 104 21" fill="none" xmlns="http://www.w3.org/2000/svg">
<g clip-path="url(#clip0_2_759)">
<path d="M97.9448 5.25C99.6339 5.25 100.996 5.76738 102.031 6.80215C103.081 7.82169 103.606 9.14558 103.606 10.7738C103.606 12.402 103.081 13.7335 102.031 14.7683C100.996 15.7879 99.6339 16.2976 97.9448 16.2976C96.2405 16.2976 94.8634 15.7879 93.8134 14.7683C92.7786 13.7335 92.2612 12.402 92.2612 10.7738C92.2612 9.14558 92.7786 7.82169 93.8134 6.80215C94.8634 5.76738 96.2405 5.25 97.9448 5.25ZM96.1188 12.9194C96.5753 13.4672 97.184 13.7412 97.9448 13.7412C98.7057 13.7412 99.3068 13.4672 99.7481 12.9194C100.205 12.3716 100.433 11.6564 100.433 10.7738C100.433 9.89122 100.205 9.17602 99.7481 8.6282C99.3068 8.08038 98.7057 7.80648 97.9448 7.80648C97.184 7.80648 96.5753 8.08038 96.1188 8.6282C95.6623 9.17602 95.434 9.89122 95.434 10.7738C95.434 11.6564 95.6623 12.3716 96.1188 12.9194Z" fill="white"/>
<path d="M73.8687 5.25C75.2534 5.25 76.3491 5.61521 77.1556 6.34563C77.9773 7.06084 78.3881 7.95865 78.3881 9.03906L78.3197 9.83796L75.5578 9.99774C75.5882 9.93687 75.6034 9.77709 75.6034 9.5184C75.6034 9.03145 75.4436 8.6282 75.1241 8.30864C74.8197 7.97386 74.386 7.80648 73.823 7.80648C73.1078 7.80648 72.5296 8.07278 72.0883 8.60537C71.6622 9.13797 71.4491 9.83796 71.4491 10.7053C71.4491 11.6488 71.685 12.3944 72.1567 12.9423C72.6437 13.4749 73.3361 13.7412 74.2339 13.7412C75.5121 13.7412 76.4936 13.3227 77.1784 12.4857L78.7077 14.4487C78.3121 14.9509 77.711 15.3846 76.9045 15.7498C76.098 16.115 75.1393 16.2976 74.0284 16.2976C72.248 16.2976 70.8405 15.7955 69.8057 14.7911C68.7861 13.7716 68.2764 12.4477 68.2764 10.8195C68.2764 9.1608 68.7938 7.82169 69.8285 6.80215C70.8633 5.76738 72.21 5.25 73.8687 5.25Z" fill="white"/>
<path d="M62.492 13.9238C63.6029 13.9238 64.5311 13.5129 65.2768 12.6912L66.7604 14.4031C66.3496 14.9357 65.7409 15.3846 64.9344 15.7498C64.1431 16.115 63.2072 16.2976 62.1268 16.2976C60.3464 16.2976 58.9312 15.7879 57.8812 14.7683C56.8465 13.7488 56.3291 12.4173 56.3291 10.7738C56.3291 9.14558 56.8313 7.82169 57.8356 6.80215C58.8399 5.76738 60.1714 5.25 61.8301 5.25C63.367 5.25 64.5768 5.72173 65.4594 6.66519C66.342 7.60865 66.7833 8.83363 66.7833 10.3401L66.692 11.4814H59.4334C59.5703 12.227 59.8975 12.8205 60.4149 13.2618C60.9323 13.7031 61.6247 13.9238 62.492 13.9238ZM61.8301 7.62387C61.2062 7.62387 60.6736 7.82169 60.2323 8.21734C59.8062 8.59777 59.5399 9.14558 59.4334 9.86079H63.9301C63.9148 9.20645 63.717 8.67385 63.3366 8.26299C62.9714 7.83691 62.4692 7.62387 61.8301 7.62387Z" fill="white"/>
<path d="M51.8545 5.38695H54.3197V15.7498C54.3197 17.3324 53.7719 18.603 52.6763 19.5617C51.5806 20.5204 50.1122 20.9997 48.2709 20.9997C46.3079 20.9997 44.6949 20.5736 43.4319 19.7215L43.7442 17.566C44.7333 18.3117 46.8481 18.4889 48.2024 18.4889C49.1155 18.4889 49.8383 18.2606 50.3709 17.8041C50.9187 17.3628 51.1926 16.7085 51.1926 15.8411V14.5172C50.4926 15.5368 49.4122 16.0465 47.9513 16.0465C46.5209 16.0465 45.3492 15.5748 44.4362 14.6314C43.5232 13.6727 43.0667 12.3412 43.0667 10.6369C43.0667 9.00863 43.5003 7.70756 44.3677 6.73367C45.2351 5.74456 46.4068 5.25 47.8829 5.25C49.6024 5.25 50.7817 5.97281 51.4208 7.41844H51.4893C51.4741 7.25105 51.5045 6.94671 51.5806 6.50541C51.6567 6.06412 51.748 5.6913 51.8545 5.38695ZM48.7274 13.4216C49.4731 13.4216 50.0665 13.1629 50.5078 12.6455C50.9643 12.1129 51.1926 11.5271 51.1926 10.8879V10.4086C51.1926 9.72383 50.9643 9.13036 50.5078 8.6282C50.0513 8.12603 49.435 7.87495 48.6589 7.87495C47.9285 7.87495 47.3427 8.12603 46.9014 8.6282C46.4601 9.13036 46.2394 9.79992 46.2394 10.6369C46.2394 11.489 46.4601 12.1662 46.9014 12.6683C47.3579 13.1705 47.9666 13.4216 48.7274 13.4216Z" fill="white"/>
<path d="M37.0996 5.25C38.393 5.25 39.3821 5.64565 40.0669 6.43694C40.7669 7.22823 41.1169 8.26299 41.1169 9.54123V16.1607H37.9898V10.089C37.9898 9.43471 37.8224 8.91733 37.4876 8.5369C37.168 8.14125 36.7039 7.94343 36.0952 7.94343C35.3496 7.94343 34.779 8.20973 34.3833 8.74233C34.0029 9.27493 33.8127 9.89122 33.8127 10.5912V16.1607H30.6855V5.38695L33.1279 5.29565C33.3866 6.10216 33.5159 6.85541 33.5159 7.55539H33.6072C34.2311 6.01846 35.3952 5.25 37.0996 5.25Z" fill="white"/>
<path d="M28.5853 1.94018C28.5853 2.50321 28.3875 2.96734 27.9918 3.33255C27.5962 3.69776 27.1169 3.88036 26.5538 3.88036C25.9908 3.88036 25.5115 3.69776 25.1158 3.33255C24.7354 2.96734 24.5452 2.50321 24.5452 1.94018C24.5452 1.39237 24.7354 0.935852 25.1158 0.570641C25.5115 0.190213 25.9908 0 26.5538 0C27.1169 0 27.5962 0.190213 27.9918 0.570641C28.3875 0.935852 28.5853 1.39237 28.5853 1.94018ZM24.9789 16.1606V5.38686L28.106 5.29556V16.1606H24.9789Z" fill="white"/>
<path d="M17.3193 5.25C19.0084 5.25 20.3704 5.76738 21.4051 6.80215C22.4551 7.82169 22.9801 9.14558 22.9801 10.7738C22.9801 12.402 22.4551 13.7335 21.4051 14.7683C20.3704 15.7879 19.0084 16.2976 17.3193 16.2976C15.615 16.2976 14.2379 15.7879 13.1879 14.7683C12.1531 13.7335 11.6357 12.402 11.6357 10.7738C11.6357 9.14558 12.1531 7.82169 13.1879 6.80215C14.2379 5.76738 15.615 5.25 17.3193 5.25ZM15.4933 12.9194C15.9498 13.4672 16.5585 13.7412 17.3193 13.7412C18.0802 13.7412 18.6813 13.4672 19.1226 12.9194C19.5791 12.3716 19.8073 11.6564 19.8073 10.7738C19.8073 9.89122 19.5791 9.17602 19.1226 8.6282C18.6813 8.08038 18.0802 7.80648 17.3193 7.80648C16.5585 7.80648 15.9498 8.08038 15.4933 8.6282C15.0368 9.17602 14.8085 9.89122 14.8085 10.7738C14.8085 11.6564 15.0368 12.3716 15.4933 12.9194Z" fill="white"/>
<path d="M5.59229 5.25C6.97705 5.25 8.07268 5.61521 8.87919 6.34563C9.70091 7.06084 10.1118 7.95865 10.1118 9.03906L10.0433 9.83796L7.28139 9.99774C7.31183 9.93687 7.32704 9.77709 7.32704 9.5184C7.32704 9.03145 7.16726 8.6282 6.8477 8.30864C6.54336 7.97386 6.10967 7.80648 5.54664 7.80648C4.83144 7.80648 4.25319 8.07278 3.81189 8.60537C3.38581 9.13797 3.17277 9.83796 3.17277 10.7053C3.17277 11.6488 3.40863 12.3944 3.88037 12.9423C4.36731 13.4749 5.05969 13.7412 5.9575 13.7412C7.23574 13.7412 8.21725 13.3227 8.90202 12.4857L10.4313 14.4487C10.0357 14.9509 9.43461 15.3846 8.62811 15.7498C7.8216 16.115 6.86292 16.2976 5.75207 16.2976C3.97167 16.2976 2.56409 15.7955 1.52932 14.7911C0.509774 13.7716 0 12.4477 0 10.8195C0 9.1608 0.517382 7.82169 1.55215 6.80215C2.58691 5.76738 3.93363 5.25 5.59229 5.25Z" fill="white"/>
<path d="M88.4107 11.3647C89.0589 12.4996 89.7063 13.423 90.3808 14.3848C90.6733 14.8021 90.971 15.2266 91.276 15.6788C91.6635 16.2533 91.161 16.9418 90.5206 16.6769C88.0235 15.6438 86.1992 13.6998 84.9494 11.8696H83.61V16.1608H80.4829V0.0458984H83.61V9.42725H84.9339C85.7861 9.42725 86.4556 9.16856 86.9426 8.65118C87.4295 8.1338 87.673 7.39577 87.673 6.43709C87.673 6.19361 87.6426 5.84362 87.5817 5.38711H90.5719C90.6479 5.7371 90.686 6.10992 90.686 6.50557C90.686 8.625 89.7398 10.4407 88.4107 11.3647Z" fill="white"/>
</g>
<defs>
<clipPath id="clip0_2_759">
<rect width="104" height="21" fill="white"/>
</clipPath>
</defs>
</svg>
