<?xml version="1.0" standalone="no"?>
<!DOCTYPE svg PUBLIC "-//W3C//DTD SVG 20010904//EN"
 "http://www.w3.org/TR/2001/REC-SVG-20010904/DTD/svg10.dtd">
<svg version="1.0" xmlns="http://www.w3.org/2000/svg"
 width="2730.000000pt" height="2730.000000pt" viewBox="0 0 2730.000000 2730.000000"
 preserveAspectRatio="xMidYMid meet">

<g transform="translate(0.000000,2730.000000) scale(0.100000,-0.100000)"
fill="#000000" stroke="none">
<path d="M13285 20968 c-22 -6 -74 -26 -114 -46 -73 -35 -109 -70 -1685 -1651
-1694 -1699 -2451 -2456 -3705 -3706 -420 -418 -786 -789 -815 -825 -104 -128
-146 -242 -146 -392 0 -127 40 -254 111 -350 22 -29 1380 -1396 3018 -3038
2115 -2120 2994 -2994 3032 -3017 104 -62 182 -85 296 -84 136 0 235 30 337
101 23 16 934 923 2026 2016 1092 1093 2469 2471 3061 3063 690 689 1089 1096
1112 1131 19 30 42 78 52 105 23 69 31 199 15 266 -15 64 -66 162 -117 227
-20 26 -757 767 -1637 1647 -881 880 -2247 2247 -3036 3037 -1503 1507 -1480
1485 -1590 1512 -54 13 -171 15 -215 4z m251 -883 c30 -13 79 -43 107 -65 45
-36 5287 -5268 5287 -5278 0 -2 -228 -1 -507 2 -280 3 -826 6 -1214 6 l-706 0
-33 48 c-18 26 -328 342 -689 702 -361 361 -1002 1005 -1426 1432 -436 440
-791 789 -818 806 -116 73 -304 59 -415 -31 -39 -31 -1116 -1101 -1780 -1767
-699 -701 -1140 -1151 -1185 -1210 -81 -106 -112 -194 -111 -315 1 -123 43
-233 133 -345 74 -93 2572 -2586 2668 -2663 200 -160 390 -230 534 -197 69 15
181 71 239 118 25 20 666 659 1425 1420 l1380 1382 1259 0 c692 0 1260 -1
1262 -3 3 -2 -1010 -1021 -2341 -2357 -1247 -1250 -3008 -3001 -3055 -3037
-165 -124 -313 -141 -452 -51 -103 67 -825 784 -4713 4685 -750 753 -748 750
-807 875 -4 10 -8 46 -8 81 0 74 25 149 76 226 31 46 3200 3222 5096 5107 416
414 445 437 552 455 76 12 182 1 242 -26z m-71 -3181 c41 -19 248 -221 1146
-1121 1219 -1222 1150 -1145 1158 -1291 3 -73 -2 -96 -42 -182 -16 -34 -276
-301 -1105 -1131 l-1085 -1087 -94 -48 c-92 -47 -98 -49 -176 -48 -100 1 -171
26 -254 89 -32 23 -527 512 -1099 1086 -995 998 -1043 1047 -1063 1102 -38
105 -26 209 38 307 43 65 2275 2301 2324 2327 71 37 168 36 252 -3z"/>
</g>
</svg>
