<?xml version="1.0" standalone="no"?>
<!DOCTYPE svg PUBLIC "-//W3C//DTD SVG 20010904//EN"
 "http://www.w3.org/TR/2001/REC-SVG-20010904/DTD/svg10.dtd">
<svg version="1.0" xmlns="http://www.w3.org/2000/svg"
 width="1024.000000pt" height="1024.000000pt" viewBox="0 0 1024.000000 1024.000000"
 preserveAspectRatio="xMidYMid meet">

<g transform="translate(0.000000,1024.000000) scale(0.100000,-0.100000)"
fill="#000000" stroke="none">
<path d="M5075 7558 c-35 -9 -214 -184 -1392 -1361 -952 -952 -1360 -1365
-1378 -1399 -35 -64 -42 -130 -20 -204 l16 -59 1327 -1328 c785 -785 1341
-1334 1362 -1344 19 -9 59 -19 88 -21 115 -10 15 -102 1500 1382 825 824 1362
1367 1375 1391 27 52 29 136 3 190 -13 27 -444 466 -1360 1383 -738 739 -1353
1350 -1368 1358 -38 20 -105 25 -153 12z m148 -391 c21 -13 555 -540 1187
-1172 633 -633 1150 -1150 1150 -1150 0 0 -241 1 -535 3 -294 1 -535 6 -535
11 0 13 -1272 1288 -1299 1301 -42 21 -119 14 -162 -15 -55 -39 -1281 -1273
-1315 -1325 -25 -38 -29 -53 -29 -114 0 -63 4 -77 32 -121 18 -28 297 -313
620 -635 513 -512 596 -589 648 -614 81 -39 129 -43 191 -17 41 18 151 123
669 641 l620 620 555 0 555 0 -1155 -1156 c-635 -636 -1181 -1176 -1214 -1200
-51 -39 -64 -44 -110 -44 -34 0 -63 7 -86 21 -30 18 -1380 1363 -2142 2134
-222 226 -257 265 -264 298 -17 94 -84 21 1214 1320 658 659 1213 1207 1232
1217 50 27 125 26 173 -3z m-45 -1381 c15 -8 241 -230 504 -493 525 -526 515
-515 489 -605 -11 -37 -78 -108 -489 -521 -275 -276 -493 -487 -516 -499 -49
-25 -113 -25 -162 0 -50 26 -959 937 -973 975 -16 41 -13 73 8 115 11 20 246
263 523 540 l503 502 43 0 c24 0 55 -6 70 -14z"/>
</g>
</svg>
